<?xml version="1.0" encoding="utf-8"?>
<!-- Generator: Adobe Illustrator 18.1.0, SVG Export Plug-In . SVG Version: 6.00 Build 0)  -->
<!DOCTYPE svg PUBLIC "-//W3C//DTD SVG 1.1//EN" "http://www.w3.org/Graphics/SVG/1.1/DTD/svg11.dtd">
<svg version="1.1" id="Layer_1" xmlns="http://www.w3.org/2000/svg" xmlns:xlink="http://www.w3.org/1999/xlink" x="0px" y="0px"
	 width="611.9px" height="497.6px" viewBox="0 266.4 611.9 497.6" enable-background="new 0 266.4 611.9 497.6"
	 xml:space="preserve">
<path fill="#000222" d="M0,699.3c0,3.2,1.6,6.1,4.8,8.6c5.3,3.6,14.8,8.9,28.3,15.9C85,750.6,139.4,764,196.3,764
	c71,0,135.5-18.3,193.5-54.8c27.6-17.4,52.2-38.4,73.6-63c21.5-24.6,38.5-50.2,51.1-76.8c12.6-26.6,22.1-53.4,28.3-80.1
	s9.2-52.8,8.8-78.1V400c24.9-17.8,44.3-38.3,58.3-61.2c1.3-2.5,1.9-4.4,1.9-5.7c0-2.7-1-5.2-3.2-7.3c-2.2-2.2-4.6-3.2-7.3-3.2
	c-1.5,0-4,0.8-7.6,2.5c-2.5,0.8-5.7,1.9-9.4,3.2c-3.7,1.3-6.9,2.4-9.5,3.3c-2.7,1-4.4,1.6-5.3,1.8c5.6-6.1,11.2-14.5,17.2-25
	s8.9-18.2,8.9-23.1c0-2.7-1-5.2-3.2-7.2c-2.2-2-4.7-3-7.6-3c-1.7,0-3.4,0.5-5.1,1.6c-24.2,12.9-46.8,21.7-67.9,26.5
	c-25.7-24.4-56.4-36.6-92.1-36.6c-36.6,0-67.7,12.7-93.4,38.3c-25.7,25.5-38.5,56.3-38.5,92.4c0,6.4,0.5,11.6,1.3,15.6
	c-35.9-3-70.5-11.6-103.9-25.8c-33.4-14.2-63.3-33.4-89.9-57.3c-6.1-5.9-18.1-18.4-35.7-37.3c-2.5-2.5-5.6-3.9-8.9-3.9
	c-2.5,0-5.2,1.7-8,5.1c-5.6,8.3-9.9,18.4-13.1,30.4c-3.2,12-4.8,23.8-4.8,35.2c0,31.7,9.9,59.3,29.7,82.9l-9.3-4.4
	c-5.3-2.4-9.3-3.5-11.8-3.5c-3.6,0-6.7,1-9.1,3.2c-2.4,2.2-3.7,4.9-3.7,8.3c0,22.3,5.7,43.4,17.2,63.4c11.5,20,27,35.9,46.5,47.8
	l-3.9-0.7c-0.5,0-1-0.1-1.8-0.3c-0.7-0.2-1.3-0.4-1.8-0.5c-0.5-0.1-0.7-0.1-1-0.1c-2.7,0-5.2,1-7.2,3.2c-2,2.2-3,4.4-3,7
	c0,0.2,0.2,1.4,0.7,3.5c7.2,22.1,19.2,40.8,36,56.2c16.8,15.4,36.4,25.7,59,31.1c-37,22.7-77.8,34.1-122.4,34.1c-3,0-7.8-0.3-14.4-1
	c-8.9-0.5-13.8-0.7-14.6-0.7c-2.7,0-5.2,1-7.2,3.2C1,694,0,696.4,0,699.3L0,699.3z"/>
</svg>
